<?xml version="1.0" encoding="UTF-8"?>
<!DOCTYPE svg PUBLIC "-//W3C//DTD SVG 1.1//EN" "http://www.w3.org/Graphics/SVG/1.1/DTD/svg11.dtd">
<svg xmlns="http://www.w3.org/2000/svg" version="1.1" width="1414px" height="1920px" style="shape-rendering:geometricPrecision; text-rendering:geometricPrecision; image-rendering:optimizeQuality; fill-rule:evenodd; clip-rule:evenodd" xmlns:xlink="http://www.w3.org/1999/xlink">
<g><path style="opacity:1" fill="#fefefe" fill-opacity="0" d="M -0.5,-0.5 C 226.167,-0.5 452.833,-0.5 679.5,-0.5C 534.619,16.8294 428.786,90.1628 362,219.5C 319.694,310.367 316.36,402.7 352,496.5C 378.911,570.998 415.245,640.332 461,704.5C 498.827,756.749 539.994,806.416 584.5,853.5C 600.484,869.989 617.817,884.823 636.5,898C 672.63,922.147 710.63,925.813 750.5,909C 774.628,897.855 796.294,883.189 815.5,865C 832.395,848.773 848.562,831.94 864,814.5C 898.061,771.373 931.394,727.706 964,683.5C 1016.99,606.784 1054.99,523.117 1078,432.5C 1090.55,384.466 1090.55,336.466 1078,288.5C 1036.88,151.378 948.378,60.211 812.5,15C 780.65,5.93066 748.317,0.763997 715.5,-0.5C 948.167,-0.5 1180.83,-0.5 1413.5,-0.5C 1413.5,443.833 1413.5,888.167 1413.5,1332.5C 1404.88,1248.43 1370.88,1176.59 1311.5,1117C 1276.83,1085.14 1237.16,1061.14 1192.5,1045C 1169.32,1037.27 1145.99,1029.94 1122.5,1023C 1074.49,1010.5 1026.49,997.997 978.5,985.5C 976.128,986.363 976.128,987.529 978.5,989C 1061.06,1037.73 1143.72,1086.23 1226.5,1134.5C 1161.12,1254.09 1079.78,1361.93 982.5,1458C 933.042,1505.82 880.375,1549.48 824.5,1589C 801.833,1604 779.167,1619 756.5,1634C 741.212,1643.98 724.879,1651.81 707.5,1657.5C 695.137,1654.32 683.471,1649.48 672.5,1643C 515.966,1549.15 384.133,1427.98 277,1279.5C 245.357,1234.67 217.19,1187.67 192.5,1138.5C 209.271,1125.61 226.604,1113.44 244.5,1102C 307.688,1060.89 372.688,1022.56 439.5,987C 440.696,986.346 440.696,985.846 439.5,985.5C 408.408,992.523 377.408,1000.02 346.5,1008C 318.3,1016.47 289.967,1024.47 261.5,1032C 229.416,1041.47 198.416,1053.47 168.5,1068C 126.143,1091.35 90.9767,1122.85 63,1162.5C 30.3771,1209.31 10.0438,1261.31 2,1318.5C 0.917022,1360.65 0.0836884,1402.65 -0.5,1444.5C -0.5,962.833 -0.5,481.167 -0.5,-0.5 Z"/></g>
<g><path style="opacity:1" fill="#0f6919" d="M 679.5,-0.5 C 691.5,-0.5 703.5,-0.5 715.5,-0.5C 748.317,0.763997 780.65,5.93066 812.5,15C 948.378,60.211 1036.88,151.378 1078,288.5C 1090.55,336.466 1090.55,384.466 1078,432.5C 1054.99,523.117 1016.99,606.784 964,683.5C 931.394,727.706 898.061,771.373 864,814.5C 848.562,831.94 832.395,848.773 815.5,865C 796.294,883.189 774.628,897.855 750.5,909C 710.63,925.813 672.63,922.147 636.5,898C 617.817,884.823 600.484,869.989 584.5,853.5C 539.994,806.416 498.827,756.749 461,704.5C 415.245,640.332 378.911,570.998 352,496.5C 316.36,402.7 319.694,310.367 362,219.5C 428.786,90.1628 534.619,16.8294 679.5,-0.5 Z"/></g>
<g><path style="opacity:1" fill="#fefefe" d="M 410.5,301.5 C 423.444,302.985 435.777,306.485 447.5,312C 544.044,358.91 610.878,432.743 648,533.5C 654.901,553.769 660.234,574.436 664,595.5C 665.203,602.804 665.537,610.137 665,617.5C 662.255,626.794 656.089,630.294 646.5,628C 604.463,620.222 566.463,603.555 532.5,578C 466.941,528.418 423.108,463.918 401,384.5C 395.935,363.786 393.935,342.786 395,321.5C 395.281,310.75 400.448,304.083 410.5,301.5 Z"/></g>
<g><path style="opacity:1" fill="#fefefe" d="M 996.5,303.5 C 1007.05,301.366 1013.55,305.366 1016,315.5C 1019.27,336.597 1018.6,357.597 1014,378.5C 1001.85,436.81 975.516,487.476 935,530.5C 903.18,565.646 865.68,592.812 822.5,612C 803.162,619.668 783.162,624.835 762.5,627.5C 757.084,627.873 752.918,625.873 750,621.5C 748,613.167 748,604.833 750,596.5C 775.062,466.795 846.562,372.628 964.5,314C 974.983,309.561 985.649,306.061 996.5,303.5 Z"/></g>
<g><path style="opacity:1" fill="#8e38af" d="M 982.5,536.5 C 983.239,536.369 983.906,536.536 984.5,537C 967.858,568.959 947.358,598.126 923,624.5C 891.325,659.847 855.159,689.68 814.5,714C 807.384,717.559 800.051,720.559 792.5,723C 788.5,723.667 784.5,723.667 780.5,723C 776.19,720.694 774.69,717.194 776,712.5C 779.365,706.129 783.865,700.629 789.5,696C 816.006,675.831 843.339,656.831 871.5,639C 912.125,608.879 949.125,574.713 982.5,536.5 Z"/></g>
<g><path style="opacity:1" fill="#8e38af" d="M 434.5,543.5 C 449.914,557.4 465.247,572.233 480.5,588C 499.923,604.76 519.923,620.76 540.5,636C 567.516,654.174 594.183,672.841 620.5,692C 627.127,697.62 632.627,704.12 637,711.5C 637.832,723.699 632.332,727.533 620.5,723C 611.072,719.452 602.072,715.119 593.5,710C 527.524,666.871 474.524,611.371 434.5,543.5 Z"/></g>
<g><path style="opacity:1" fill="#0f6919" d="M 521.5,837.5 C 541.171,858.34 560.338,879.674 579,901.5C 601.525,933.421 619.859,967.754 634,1004.5C 651.51,1052.7 663.177,1102.37 669,1153.5C 672.24,1185.81 675.24,1218.14 678,1250.5C 682.193,1357 686.36,1463.5 690.5,1570C 690.167,1573.83 689.833,1577.67 689.5,1581.5C 639.167,1545.67 588.833,1509.83 538.5,1474C 456.193,1405.24 384.027,1327.07 322,1239.5C 303.253,1213.4 286.086,1186.23 270.5,1158C 336.444,1115.41 403.444,1074.41 471.5,1035C 508.34,1013.17 525.673,980.666 523.5,937.5C 522.861,904.162 522.195,870.829 521.5,837.5 Z"/></g>
<g><path style="opacity:1" fill="#0f6919" d="M 891.5,841.5 C 892.809,843.571 893.475,846.071 893.5,849C 890.614,887.782 889.781,926.615 891,965.5C 894.286,987.577 904.453,1005.74 921.5,1020C 927.655,1024.91 933.989,1029.58 940.5,1034C 1008.98,1074.33 1077.32,1114.83 1145.5,1155.5C 1074.01,1276.53 984.345,1382.7 876.5,1474C 828.282,1512.55 778.116,1548.38 726,1581.5C 726.251,1473.39 729.918,1365.39 737,1257.5C 740.012,1190.4 748.679,1124.07 763,1058.5C 768.948,1034.45 776.281,1010.78 785,987.5C 797.916,956.322 814.916,927.655 836,901.5C 853.97,881.029 872.47,861.029 891.5,841.5 Z"/></g>
<g><path style="opacity:1" fill="#0f6919" d="M 637.5,935.5 C 649.825,939.888 662.159,944.388 674.5,949C 695.744,954.589 717.077,954.922 738.5,950C 750.096,946.359 761.429,942.359 772.5,938C 745.915,996.486 728.082,1057.65 719,1121.5C 714.923,1149.78 711.257,1178.11 708,1206.5C 703.753,1173.54 699.087,1140.54 694,1107.5C 684.637,1046.91 665.804,989.581 637.5,935.5 Z"/></g>
<g><path style="opacity:1" fill="#0f6919" d="M 1413.5,1332.5 C 1413.5,1427.5 1413.5,1522.5 1413.5,1617.5C 1409.6,1625.23 1403.6,1630.73 1395.5,1634C 1171.96,1726.61 949.295,1820.95 727.5,1917C 723.301,1917.53 719.301,1918.36 715.5,1919.5C 710.167,1919.5 704.833,1919.5 699.5,1919.5C 691.369,1918.3 683.369,1916.13 675.5,1913C 453.776,1817.66 231.443,1722.99 8.5,1629C 3.32144,1624.58 0.321444,1619.08 -0.5,1612.5C -0.5,1556.5 -0.5,1500.5 -0.5,1444.5C 0.0836884,1402.65 0.917022,1360.65 2,1318.5C 10.0438,1261.31 30.3771,1209.31 63,1162.5C 90.9767,1122.85 126.143,1091.35 168.5,1068C 198.416,1053.47 229.416,1041.47 261.5,1032C 289.967,1024.47 318.3,1016.47 346.5,1008C 377.408,1000.02 408.408,992.523 439.5,985.5C 440.696,985.846 440.696,986.346 439.5,987C 372.688,1022.56 307.688,1060.89 244.5,1102C 226.604,1113.44 209.271,1125.61 192.5,1138.5C 217.19,1187.67 245.357,1234.67 277,1279.5C 384.133,1427.98 515.966,1549.15 672.5,1643C 683.471,1649.48 695.137,1654.32 707.5,1657.5C 724.879,1651.81 741.212,1643.98 756.5,1634C 779.167,1619 801.833,1604 824.5,1589C 880.375,1549.48 933.042,1505.82 982.5,1458C 1079.78,1361.93 1161.12,1254.09 1226.5,1134.5C 1143.72,1086.23 1061.06,1037.73 978.5,989C 976.128,987.529 976.128,986.363 978.5,985.5C 1026.49,997.997 1074.49,1010.5 1122.5,1023C 1145.99,1029.94 1169.32,1037.27 1192.5,1045C 1237.16,1061.14 1276.83,1085.14 1311.5,1117C 1370.88,1176.59 1404.88,1248.43 1413.5,1332.5 Z"/></g>
<g><path style="opacity:1" fill="#8e38af" d="M 1322.5,1259.5 C 1324.65,1259.7 1324.81,1260.7 1323,1262.5C 1312.5,1274.66 1303.17,1287.66 1295,1301.5C 1262.79,1357.94 1239.46,1417.94 1225,1481.5C 1215.29,1524.43 1207.96,1567.76 1203,1611.5C 1200.4,1640.53 1197.73,1669.53 1195,1698.5C 1173.44,1708.64 1151.6,1718.3 1129.5,1727.5C 1138.74,1592.15 1179.24,1467.15 1251,1352.5C 1261,1338.5 1271,1324.5 1281,1310.5C 1294.85,1293.44 1308.68,1276.44 1322.5,1259.5 Z"/></g>
<g><path style="opacity:1" fill="#8e38af" d="M 98.5,1268.5 C 157.57,1333.92 202.403,1408.26 233,1491.5C 261.373,1566.53 276.873,1644.2 279.5,1724.5C 257.874,1716.04 236.374,1707.04 215,1697.5C 212.795,1596.6 195.795,1498.27 164,1402.5C 148.276,1354.72 126.442,1310.05 98.5,1268.5 Z"/></g>
<g><path style="opacity:1" fill="#fefefe" fill-opacity="0" d="M 1413.5,1617.5 C 1413.5,1718.17 1413.5,1818.83 1413.5,1919.5C 1180.83,1919.5 948.167,1919.5 715.5,1919.5C 719.301,1918.36 723.301,1917.53 727.5,1917C 949.295,1820.95 1171.96,1726.61 1395.5,1634C 1403.6,1630.73 1409.6,1625.23 1413.5,1617.5 Z"/></g>
<g><path style="opacity:1" fill="#fefefe" fill-opacity="0" d="M -0.5,1612.5 C 0.321444,1619.08 3.32144,1624.58 8.5,1629C 231.443,1722.99 453.776,1817.66 675.5,1913C 683.369,1916.13 691.369,1918.3 699.5,1919.5C 466.167,1919.5 232.833,1919.5 -0.5,1919.5C -0.5,1817.17 -0.5,1714.83 -0.5,1612.5 Z"/></g>
</svg>
