<svg id="visual" viewBox="0 0 900 600" width="900" height="600" xmlns="http://www.w3.org/2000/svg" xmlns:xlink="http://www.w3.org/1999/xlink" version="1.1"><rect x="0" y="0" width="900" height="600" fill="#001829"></rect><g fill="#8e38af"><path d="M0 -119.9L26.9 -37L114 -37L43.5 14.1L70.5 97L0 45.8L-70.5 97L-43.5 14.1L-114 -37L-26.9 -37Z" transform="translate(248 252)"></path><path d="M0 -45.3L10.2 -14L43.1 -14L16.5 5.3L26.6 36.7L0 17.3L-26.6 36.7L-16.5 5.3L-43.1 -14L-10.2 -14Z" transform="translate(675 456)"></path><path d="M0 -107.6L24.2 -33.2L102.3 -33.2L39.1 12.7L63.2 87L0 41.1L-63.2 87L-39.1 12.7L-102.3 -33.2L-24.2 -33.2Z" transform="translate(348 586)"></path><path d="M0 -91.6L20.6 -28.3L87.1 -28.3L33.3 10.8L53.8 74.1L0 35L-53.8 74.1L-33.3 10.8L-87.1 -28.3L-20.6 -28.3Z" transform="translate(31 71)"></path><path d="M0 -95.3L21.4 -29.5L90.7 -29.5L34.6 11.3L56 77.1L0 36.4L-56 77.1L-34.6 11.3L-90.7 -29.5L-21.4 -29.5Z" transform="translate(726 171)"></path><path d="M0 -83.1L18.6 -25.7L79 -25.7L30.2 9.8L48.8 67.2L0 31.7L-48.8 67.2L-30.2 9.8L-79 -25.7L-18.6 -25.7Z" transform="translate(44 578)"></path></g></svg>