<svg id="visual" viewBox="0 0 900 600" width="900" height="600" xmlns="http://www.w3.org/2000/svg" xmlns:xlink="http://www.w3.org/1999/xlink" version="1.1"><rect x="0" y="0" width="900" height="600" fill="#001829"></rect><g fill="#f0f0f0"><path d="M0 -25.5L5.7 -7.9L24.2 -7.9L9.3 3L15 20.6L0 9.7L-15 20.6L-9.3 3L-24.2 -7.9L-5.7 -7.9Z" transform="translate(190 260)"></path><path d="M0 -10.4L2.3 -3.2L9.9 -3.2L3.8 1.2L6.1 8.4L0 4L-6.1 8.4L-3.8 1.2L-9.9 -3.2L-2.3 -3.2Z" transform="translate(774 506)"></path><path d="M0 -21.7L4.9 -6.7L20.6 -6.7L7.9 2.6L12.8 17.6L0 8.3L-12.8 17.6L-7.9 2.6L-20.6 -6.7L-4.9 -6.7Z" transform="translate(267 591)"></path><path d="M0 -21.7L4.9 -6.7L20.6 -6.7L7.9 2.6L12.8 17.6L0 8.3L-12.8 17.6L-7.9 2.6L-20.6 -6.7L-4.9 -6.7Z" transform="translate(171 81)"></path><path d="M0 -12.3L2.8 -3.8L11.7 -3.8L4.5 1.4L7.2 9.9L0 4.7L-7.2 9.9L-4.5 1.4L-11.7 -3.8L-2.8 -3.8Z" transform="translate(651 3)"></path><path d="M0 -23.6L5.3 -7.3L22.4 -7.3L8.6 2.8L13.9 19.1L0 9L-13.9 19.1L-8.6 2.8L-22.4 -7.3L-5.3 -7.3Z" transform="translate(791 399)"></path><path d="M0 -12.3L2.8 -3.8L11.7 -3.8L4.5 1.4L7.2 9.9L0 4.7L-7.2 9.9L-4.5 1.4L-11.7 -3.8L-2.8 -3.8Z" transform="translate(287 288)"></path><path d="M0 -17.9L4 -5.5L17.1 -5.5L6.5 2.1L10.5 14.5L0 6.8L-10.5 14.5L-6.5 2.1L-17.1 -5.5L-4 -5.5Z" transform="translate(875 241)"></path><path d="M0 -20.8L4.7 -6.4L19.7 -6.4L7.5 2.5L12.2 16.8L0 7.9L-12.2 16.8L-7.5 2.5L-19.7 -6.4L-4.7 -6.4Z" transform="translate(289 518)"></path><path d="M0 -16L3.6 -5L15.3 -5L5.8 1.9L9.4 13L0 6.1L-9.4 13L-5.8 1.9L-15.3 -5L-3.6 -5Z" transform="translate(728 79)"></path><path d="M0 -16L3.6 -5L15.3 -5L5.8 1.9L9.4 13L0 6.1L-9.4 13L-5.8 1.9L-15.3 -5L-3.6 -5Z" transform="translate(526 301)"></path><path d="M0 -11.3L2.5 -3.5L10.8 -3.5L4.1 1.3L6.7 9.2L0 4.3L-6.7 9.2L-4.1 1.3L-10.8 -3.5L-2.5 -3.5Z" transform="translate(549 443)"></path><path d="M0 -15.1L3.4 -4.7L14.4 -4.7L5.5 1.8L8.9 12.2L0 5.8L-8.9 12.2L-5.5 1.8L-14.4 -4.7L-3.4 -4.7Z" transform="translate(306 407)"></path><path d="M0 -21.7L4.9 -6.7L20.6 -6.7L7.9 2.6L12.8 17.6L0 8.3L-12.8 17.6L-7.9 2.6L-20.6 -6.7L-4.9 -6.7Z" transform="translate(455 109)"></path><path d="M0 -14.2L3.2 -4.4L13.5 -4.4L5.1 1.7L8.3 11.5L0 5.4L-8.3 11.5L-5.1 1.7L-13.5 -4.4L-3.2 -4.4Z" transform="translate(260 157)"></path><path d="M0 -13.2L3 -4.1L12.6 -4.1L4.8 1.6L7.8 10.7L0 5L-7.8 10.7L-4.8 1.6L-12.6 -4.1L-3 -4.1Z" transform="translate(683 511)"></path><path d="M0 -12.3L2.8 -3.8L11.7 -3.8L4.5 1.4L7.2 9.9L0 4.7L-7.2 9.9L-4.5 1.4L-11.7 -3.8L-2.8 -3.8Z" transform="translate(468 307)"></path><path d="M0 -14.2L3.2 -4.4L13.5 -4.4L5.1 1.7L8.3 11.5L0 5.4L-8.3 11.5L-5.1 1.7L-13.5 -4.4L-3.2 -4.4Z" transform="translate(806 164)"></path><path d="M0 -14.2L3.2 -4.4L13.5 -4.4L5.1 1.7L8.3 11.5L0 5.4L-8.3 11.5L-5.1 1.7L-13.5 -4.4L-3.2 -4.4Z" transform="translate(120 432)"></path><path d="M0 -23.6L5.3 -7.3L22.4 -7.3L8.6 2.8L13.9 19.1L0 9L-13.9 19.1L-8.6 2.8L-22.4 -7.3L-5.3 -7.3Z" transform="translate(712 355)"></path><path d="M0 -13.2L3 -4.1L12.6 -4.1L4.8 1.6L7.8 10.7L0 5L-7.8 10.7L-4.8 1.6L-12.6 -4.1L-3 -4.1Z" transform="translate(792 111)"></path><path d="M0 -15.1L3.4 -4.7L14.4 -4.7L5.5 1.8L8.9 12.2L0 5.8L-8.9 12.2L-5.5 1.8L-14.4 -4.7L-3.4 -4.7Z" transform="translate(608 511)"></path><path d="M0 -21.7L4.9 -6.7L20.6 -6.7L7.9 2.6L12.8 17.6L0 8.3L-12.8 17.6L-7.9 2.6L-20.6 -6.7L-4.9 -6.7Z" transform="translate(832 57)"></path><path d="M0 -22.7L5.1 -7L21.5 -7L8.2 2.7L13.3 18.3L0 8.7L-13.3 18.3L-8.2 2.7L-21.5 -7L-5.1 -7Z" transform="translate(290 94)"></path><path d="M0 -13.2L3 -4.1L12.6 -4.1L4.8 1.6L7.8 10.7L0 5L-7.8 10.7L-4.8 1.6L-12.6 -4.1L-3 -4.1Z" transform="translate(767 339)"></path><path d="M0 -19.8L4.4 -6.1L18.9 -6.1L7.2 2.3L11.7 16L0 7.6L-11.7 16L-7.2 2.3L-18.9 -6.1L-4.4 -6.1Z" transform="translate(618 295)"></path><path d="M0 -21.7L4.9 -6.7L20.6 -6.7L7.9 2.6L12.8 17.6L0 8.3L-12.8 17.6L-7.9 2.6L-20.6 -6.7L-4.9 -6.7Z" transform="translate(610 104)"></path><path d="M0 -12.3L2.8 -3.8L11.7 -3.8L4.5 1.4L7.2 9.9L0 4.7L-7.2 9.9L-4.5 1.4L-11.7 -3.8L-2.8 -3.8Z" transform="translate(892 74)"></path><path d="M0 -16L3.6 -5L15.3 -5L5.8 1.9L9.4 13L0 6.1L-9.4 13L-5.8 1.9L-15.3 -5L-3.6 -5Z" transform="translate(678 298)"></path><path d="M0 -18.9L4.2 -5.8L18 -5.8L6.9 2.2L11.1 15.3L0 7.2L-11.1 15.3L-6.9 2.2L-18 -5.8L-4.2 -5.8Z" transform="translate(64 153)"></path><path d="M0 -9.4L2.1 -2.9L9 -2.9L3.4 1.1L5.5 7.6L0 3.6L-5.5 7.6L-3.4 1.1L-9 -2.9L-2.1 -2.9Z" transform="translate(35 520)"></path><path d="M0 -10.4L2.3 -3.2L9.9 -3.2L3.8 1.2L6.1 8.4L0 4L-6.1 8.4L-3.8 1.2L-9.9 -3.2L-2.3 -3.2Z" transform="translate(166 161)"></path><path d="M0 -16L3.6 -5L15.3 -5L5.8 1.9L9.4 13L0 6.1L-9.4 13L-5.8 1.9L-15.3 -5L-3.6 -5Z" transform="translate(629 385)"></path><path d="M0 -10.4L2.3 -3.2L9.9 -3.2L3.8 1.2L6.1 8.4L0 4L-6.1 8.4L-3.8 1.2L-9.9 -3.2L-2.3 -3.2Z" transform="translate(414 249)"></path><path d="M0 -22.7L5.1 -7L21.5 -7L8.2 2.7L13.3 18.3L0 8.7L-13.3 18.3L-8.2 2.7L-21.5 -7L-5.1 -7Z" transform="translate(509 225)"></path><path d="M0 -18.9L4.2 -5.8L18 -5.8L6.9 2.2L11.1 15.3L0 7.2L-11.1 15.3L-6.9 2.2L-18 -5.8L-4.2 -5.8Z" transform="translate(343 68)"></path><path d="M0 -9.4L2.1 -2.9L9 -2.9L3.4 1.1L5.5 7.6L0 3.6L-5.5 7.6L-3.4 1.1L-9 -2.9L-2.1 -2.9Z" transform="translate(129 203)"></path><path d="M0 -14.2L3.2 -4.4L13.5 -4.4L5.1 1.7L8.3 11.5L0 5.4L-8.3 11.5L-5.1 1.7L-13.5 -4.4L-3.2 -4.4Z" transform="translate(247 388)"></path><path d="M0 -9.4L2.1 -2.9L9 -2.9L3.4 1.1L5.5 7.6L0 3.6L-5.5 7.6L-3.4 1.1L-9 -2.9L-2.1 -2.9Z" transform="translate(433 42)"></path><path d="M0 -16L3.6 -5L15.3 -5L5.8 1.9L9.4 13L0 6.1L-9.4 13L-5.8 1.9L-15.3 -5L-3.6 -5Z" transform="translate(664 82)"></path><path d="M0 -15.1L3.4 -4.7L14.4 -4.7L5.5 1.8L8.9 12.2L0 5.8L-8.9 12.2L-5.5 1.8L-14.4 -4.7L-3.4 -4.7Z" transform="translate(759 560)"></path><path d="M0 -9.4L2.1 -2.9L9 -2.9L3.4 1.1L5.5 7.6L0 3.6L-5.5 7.6L-3.4 1.1L-9 -2.9L-2.1 -2.9Z" transform="translate(813 581)"></path><path d="M0 -22.7L5.1 -7L21.5 -7L8.2 2.7L13.3 18.3L0 8.7L-13.3 18.3L-8.2 2.7L-21.5 -7L-5.1 -7Z" transform="translate(513 578)"></path><path d="M0 -17.9L4 -5.5L17.1 -5.5L6.5 2.1L10.5 14.5L0 6.8L-10.5 14.5L-6.5 2.1L-17.1 -5.5L-4 -5.5Z" transform="translate(337 2)"></path><path d="M0 -21.7L4.9 -6.7L20.6 -6.7L7.9 2.6L12.8 17.6L0 8.3L-12.8 17.6L-7.9 2.6L-20.6 -6.7L-4.9 -6.7Z" transform="translate(78 484)"></path><path d="M0 -13.2L3 -4.1L12.6 -4.1L4.8 1.6L7.8 10.7L0 5L-7.8 10.7L-4.8 1.6L-12.6 -4.1L-3 -4.1Z" transform="translate(570 224)"></path><path d="M0 -20.8L4.7 -6.4L19.7 -6.4L7.5 2.5L12.2 16.8L0 7.9L-12.2 16.8L-7.5 2.5L-19.7 -6.4L-4.7 -6.4Z" transform="translate(154 29)"></path><path d="M0 -16L3.6 -5L15.3 -5L5.8 1.9L9.4 13L0 6.1L-9.4 13L-5.8 1.9L-15.3 -5L-3.6 -5Z" transform="translate(115 341)"></path><path d="M0 -18.9L4.2 -5.8L18 -5.8L6.9 2.2L11.1 15.3L0 7.2L-11.1 15.3L-6.9 2.2L-18 -5.8L-4.2 -5.8Z" transform="translate(615 439)"></path><path d="M0 -19.8L4.4 -6.1L18.9 -6.1L7.2 2.3L11.7 16L0 7.6L-11.7 16L-7.2 2.3L-18.9 -6.1L-4.4 -6.1Z" transform="translate(68 220)"></path><path d="M0 -14.2L3.2 -4.4L13.5 -4.4L5.1 1.7L8.3 11.5L0 5.4L-8.3 11.5L-5.1 1.7L-13.5 -4.4L-3.2 -4.4Z" transform="translate(43 48)"></path><path d="M0 -18.9L4.2 -5.8L18 -5.8L6.9 2.2L11.1 15.3L0 7.2L-11.1 15.3L-6.9 2.2L-18 -5.8L-4.2 -5.8Z" transform="translate(569 593)"></path><path d="M0 -17L3.8 -5.2L16.2 -5.2L6.2 2L10 13.7L0 6.5L-10 13.7L-6.2 2L-16.2 -5.2L-3.8 -5.2Z" transform="translate(829 515)"></path><path d="M0 -20.8L4.7 -6.4L19.7 -6.4L7.5 2.5L12.2 16.8L0 7.9L-12.2 16.8L-7.5 2.5L-19.7 -6.4L-4.7 -6.4Z" transform="translate(238 456)"></path><path d="M0 -13.2L3 -4.1L12.6 -4.1L4.8 1.6L7.8 10.7L0 5L-7.8 10.7L-4.8 1.6L-12.6 -4.1L-3 -4.1Z" transform="translate(420 173)"></path><path d="M0 -16L3.6 -5L15.3 -5L5.8 1.9L9.4 13L0 6.1L-9.4 13L-5.8 1.9L-15.3 -5L-3.6 -5Z" transform="translate(17 312)"></path><path d="M0 -13.2L3 -4.1L12.6 -4.1L4.8 1.6L7.8 10.7L0 5L-7.8 10.7L-4.8 1.6L-12.6 -4.1L-3 -4.1Z" transform="translate(406 520)"></path><path d="M0 -21.7L4.9 -6.7L20.6 -6.7L7.9 2.6L12.8 17.6L0 8.3L-12.8 17.6L-7.9 2.6L-20.6 -6.7L-4.9 -6.7Z" transform="translate(860 350)"></path><path d="M0 -15.1L3.4 -4.7L14.4 -4.7L5.5 1.8L8.9 12.2L0 5.8L-8.9 12.2L-5.5 1.8L-14.4 -4.7L-3.4 -4.7Z" transform="translate(352 374)"></path><path d="M0 -11.3L2.5 -3.5L10.8 -3.5L4.1 1.3L6.7 9.2L0 4.3L-6.7 9.2L-4.1 1.3L-10.8 -3.5L-2.5 -3.5Z" transform="translate(543 175)"></path><path d="M0 -11.3L2.5 -3.5L10.8 -3.5L4.1 1.3L6.7 9.2L0 4.3L-6.7 9.2L-4.1 1.3L-10.8 -3.5L-2.5 -3.5Z" transform="translate(668 198)"></path><path d="M0 -17L3.8 -5.2L16.2 -5.2L6.2 2L10 13.7L0 6.5L-10 13.7L-6.2 2L-16.2 -5.2L-3.8 -5.2Z" transform="translate(83 284)"></path><path d="M0 -21.7L4.9 -6.7L20.6 -6.7L7.9 2.6L12.8 17.6L0 8.3L-12.8 17.6L-7.9 2.6L-20.6 -6.7L-4.9 -6.7Z" transform="translate(551 10)"></path><path d="M0 -17.9L4 -5.5L17.1 -5.5L6.5 2.1L10.5 14.5L0 6.8L-10.5 14.5L-6.5 2.1L-17.1 -5.5L-4 -5.5Z" transform="translate(281 219)"></path><path d="M0 -23.6L5.3 -7.3L22.4 -7.3L8.6 2.8L13.9 19.1L0 9L-13.9 19.1L-8.6 2.8L-22.4 -7.3L-5.3 -7.3Z" transform="translate(35 596)"></path><path d="M0 -13.2L3 -4.1L12.6 -4.1L4.8 1.6L7.8 10.7L0 5L-7.8 10.7L-4.8 1.6L-12.6 -4.1L-3 -4.1Z" transform="translate(100 85)"></path><path d="M0 -17L3.8 -5.2L16.2 -5.2L6.2 2L10 13.7L0 6.5L-10 13.7L-6.2 2L-16.2 -5.2L-3.8 -5.2Z" transform="translate(465 516)"></path><path d="M0 -17.9L4 -5.5L17.1 -5.5L6.5 2.1L10.5 14.5L0 6.8L-10.5 14.5L-6.5 2.1L-17.1 -5.5L-4 -5.5Z" transform="translate(499 404)"></path><path d="M0 -23.6L5.3 -7.3L22.4 -7.3L8.6 2.8L13.9 19.1L0 9L-13.9 19.1L-8.6 2.8L-22.4 -7.3L-5.3 -7.3Z" transform="translate(537 63)"></path></g></svg>